<?xml version="1.0" encoding="UTF-8" standalone="no"?>
<!-- Created with Inkscape (http://www.inkscape.org/) -->

<svg
   width="104.31371mm"
   height="124.5481mm"
   viewBox="0 0 104.31371 124.5481"
   version="1.1"
   id="svg1"
   xmlns="http://www.w3.org/2000/svg"
   xmlns:svg="http://www.w3.org/2000/svg">
  <defs
     id="defs1" />
  <g
     id="layer1"
     transform="translate(-46.971824,-81.86947)">
    <path
       style="fill:#87aade;stroke-width:0.264583"
       d="m 46.971824,112.06102 c 25.847019,5.60408 48.129473,-9.27533 50.736469,-30.19155 0,0 13.223987,37.85575 51.866407,28.29037 8.57959,-2.12376 -16.20531,86.67754 -49.849,96.25773 C 59.124062,186.86389 53.270521,149.75238 46.971824,112.06102 Z"
       id="path1" />
    <path
       style="fill:#0b1728;stroke-width:0.18215"
       d="m 62.6375,126.49791 c 17.794131,3.85807 33.134271,-6.38552 34.929032,-20.78509 0,0 9.103928,26.06143 35.706928,19.47624 5.90653,-1.46209 -11.15639,59.67231 -34.318064,66.2677 C 71.003591,177.99522 66.973777,152.44616 62.6375,126.49791 Z"
       id="path2" />
    <path
       style="fill:#aaaaff;stroke-width:0.136904"
       d="m 71.831908,136.29407 c 13.374105,2.89973 24.903785,-4.79937 26.252731,-15.62212 0,0 6.842531,19.58782 26.837401,14.63838 4.43936,-1.09891 -8.38516,44.84983 -25.793528,49.80694 -21.008633,-10.11772 -24.037449,-29.32045 -27.296604,-48.8232 z"
       id="path3" />
    <path
       style="fill:#5555ff;stroke-width:0.101098"
       d="m 78.553919,142.90871 c 9.876243,2.14134 18.390452,-3.54414 19.386595,-11.53631 0,0 5.052936,14.46483 19.818346,10.80986 3.27829,-0.8115 -6.1921,33.11981 -19.047488,36.78044 -15.514037,-7.47153 -17.750697,-21.65198 -20.157453,-36.05399 z"
       id="path4" />
  </g>
</svg>
